<?xml version="1.0" encoding="UTF-8"?>
<!-- Generator: Adobe Illustrator 28.2.0, SVG Export Plug-In . SVG Version: 6.00 Build 0)  -->
<svg xmlns="http://www.w3.org/2000/svg" xmlns:xlink="http://www.w3.org/1999/xlink" version="1.1" id="Layer_1" x="0px" y="0px" viewBox="0 0 1080 1920" style="enable-background:new 0 0 1080 1920;" xml:space="preserve">
<style type="text/css">
	.st0{fill:none;stroke:#B48E65;stroke-width:2.9896;stroke-miterlimit:10;}
</style>
<g>
	<g>
		<path class="st0" d="M818.2,38.5c-1.5,0-3,0.3-4.4,0.8c-12.9,4.8-23,14.1-32,24.3c-56.5,68.6-71.7,159.4-75.1,246.6    c11.5-63.9,41.3-125,71.5-182.8c21.9,165.7,20.1,334.7,19,503.7c-1.4,103.4,33.5,205.2-14.1,302.3c-4.5,21.7-32.1-2.7-42,13.7    c-63.7,84.6-20.2,287-90.6,332.8c-37.9,1.5-49.6-55.3-55.3-83.7c-9.7-50.9-53.5-118.7-41.4-17.3l0.9-0.5    c13.6,81,95.3,149,81.8,237c-6.5,65.2-82.2,106.4-144.7,116.7c-1.7,0.3-3.8,0.8-6.2,1.7c-25.5,8.5-46.9,26.1-60.6,49.3    c-41.1,69.3-72.2,144-82.7,220.5c-3.6,26.3,16.9,49.7,43.5,49.7h48.2c200.1,0,372.8-140.5,413.2-336.5    c9.1-44.3,17.2-86,22.7-119.5c75-194.1,110.1-398.4,113.5-608.8c-2.3-18.7-43.8-314.9-48.8-354.1C895.8,307.7,998.5,77,821.9,38.8    c-1.2-0.2-2.3-0.4-3.5-0.3L818.2,38.5z"></path>
		<path class="st0" d="M119.5,1853.2H133c2.7,0,5-2.1,5.1-4.9c0.1-2.6,0.3-5.2,0.6-7.7c-1.7-20.4,95.4-266.3-15.4-300.4    c21.2,101.7-6.7,205.2-9,307.7C114.2,1850.9,116.6,1853.2,119.5,1853.2z"></path>
		<path class="st0" d="M173.5,1292.7c15.1-11.7,27.4-27,39.3-41.9c0,0,0.1,0,0.1,0c97.3-145.8,156-354.5,42.2-504.6    c61.9,228.6,53.2,351.1-88.4,549.2C169.1,1295.1,171.4,1294,173.5,1292.7z"></path>
		<path class="st0" d="M252,482.7c8-38.2,20-78.9,7.7-115.2c57.2-136.8,242.7-16.7,351.3-13.1c24.1,38,37.9,81.9,58.9,121.8    c-85.4-22.7-178.7,2.6-263.7-23.6c-31-16.9-94-49.1-102.1,7.6c6,44.6,6.1,90.5,7.5,136.2c-3.4,98.6,66.5,182,37.1,283.1    c-12.1,40.1,32,16,20.1,43.2c-3.1,22.8-63.7,100.7-20.8,96.8c6.7-0.2,3.1,5.1,2.2,6.7c-20.8,30.4-27,46.9-7.6,80.6    c6.4,19.8,10.3,21.8,26.1,8.8c27.6-29.6,72.6-20.7,101.3-42c76.8-61.9,118.3-153.4,191.4-219.9c62.5-149.9,42.9-337.3,40-498.3    c-280.8-49.8-500.4-208.2-459.9,211.3C242.9,538.5,246.3,510.4,252,482.7z M597.6,526.9c0.6-20.5,29.1-38.8,44.6-22.2    C647.4,528.8,596.1,536.9,597.6,526.9z M635.6,665.9c-19.1,10.8-32,27.7-44.4,43.6c-11.1-6.2-61.3-98-71.2-60.9    c13.8,27.5,35.1,59.8,18.2,90.4c-21.3,53.4-26.8,101.4-32.3,157.2c-2.4,10,10.4,11.7,13.5,3.7c4.8-12,61-84.4,52.3-40.4    C559,874.3,452.3,1069,443.2,1019c-21-28.8-25.5-12.9-33.4,10.4c-45.6,35,41.7-121.2,39.8-135.6c86.7-170.4-75.6-227,0.7-335.4    c16-17.5-23.8-55.8,6.2-62.9c16.4-4.2,103-22.2,118.1-10.9c13.1,3.4-54.8,40.9-69.7,50.4c-50,44.4,39.1,35.5,62.7,48.6    C601,590.8,667.3,627.6,635.6,665.9z"></path>
	</g>
</g>
</svg>
