<?xml version="1.0" encoding="UTF-8"?>
<svg xmlns="http://www.w3.org/2000/svg" width="16.141" height="16.138" viewBox="0 0 16.141 16.138">
  <path id="Icon_awesome-instagram" data-name="Icon awesome-instagram" d="M8.067,6.169A4.138,4.138,0,1,0,12.2,10.307,4.131,4.131,0,0,0,8.067,6.169Zm0,6.828a2.69,2.69,0,1,1,2.69-2.69A2.695,2.695,0,0,1,8.067,13Zm5.272-7a.965.965,0,1,1-.965-.965A.963.963,0,0,1,13.339,6Zm2.74.979a4.776,4.776,0,0,0-1.3-3.381,4.807,4.807,0,0,0-3.381-1.3c-1.332-.076-5.326-.076-6.658,0a4.8,4.8,0,0,0-3.381,1.3,4.792,4.792,0,0,0-1.3,3.381c-.076,1.332-.076,5.326,0,6.658a4.776,4.776,0,0,0,1.3,3.381,4.813,4.813,0,0,0,3.381,1.3c1.332.076,5.326.076,6.658,0a4.776,4.776,0,0,0,3.381-1.3,4.807,4.807,0,0,0,1.3-3.381c.076-1.332.076-5.322,0-6.655Zm-1.721,8.084A2.723,2.723,0,0,1,12.824,16.6c-1.062.421-3.583.324-4.757.324s-3.7.094-4.757-.324a2.723,2.723,0,0,1-1.534-1.534c-.421-1.062-.324-3.583-.324-4.757s-.094-3.7.324-4.757A2.723,2.723,0,0,1,3.31,4.016c1.062-.421,3.583-.324,4.757-.324s3.7-.094,4.757.324A2.723,2.723,0,0,1,14.358,5.55c.421,1.062.324,3.583.324,4.757S14.78,14,14.358,15.064Z" transform="translate(0.005 -2.238)" fill="#233C29"></path>
</svg>
