<?xml version="1.0" encoding="UTF-8"?>
<svg xmlns="http://www.w3.org/2000/svg" xmlns:xlink="http://www.w3.org/1999/xlink" width="17.624" height="17.623" viewBox="0 0 17.624 17.623">
  <defs>
    <clipPath id="clip-path">
      <rect width="17.624" height="17.623" fill="none"></rect>
    </clipPath>
  </defs>
  <g id="Repeat_Grid_28" data-name="Repeat Grid 28" clip-path="url(#clip-path)">
    <g transform="translate(-1506.03 -454.739)">
      <path id="Icon_awesome-linkedin-in" data-name="Icon awesome-linkedin-in" d="M3.945,17.624H.291V5.858H3.945ZM2.116,4.253A2.126,2.126,0,1,1,4.232,2.117,2.134,2.134,0,0,1,2.116,4.253Zm15.5,13.371H13.974V11.9c0-1.365-.028-3.116-1.9-3.116-1.9,0-2.191,1.483-2.191,3.017v5.826H6.234V5.858h3.5v1.6h.051a3.839,3.839,0,0,1,3.457-1.9c3.7,0,4.378,2.435,4.378,5.6v6.463Z" transform="translate(1506.03 454.738)" fill="#233C29"></path>
    </g>
  </g>
</svg>
